<?xml version="1.0" standalone="no"?>
<!DOCTYPE svg PUBLIC "-//W3C//DTD SVG 20010904//EN"
 "http://www.w3.org/TR/2001/REC-SVG-20010904/DTD/svg10.dtd">
<svg version="1.0" xmlns="http://www.w3.org/2000/svg"
 width="1280.000000pt" height="640.000000pt" viewBox="0 0 1280.000000 640.000000"
 preserveAspectRatio="xMidYMid meet">
<metadata>
Created by potrace 1.15, written by Peter Selinger 2001-2017
</metadata>
<g transform="translate(0.000000,640.000000) scale(0.100000,-0.100000)"
fill="#4caf50" stroke="none">
<path d="M11858 5631 c-167 -67 -308 -268 -308 -440 0 -70 -17 -111 -47 -111
-9 0 -54 29 -102 64 -136 101 -159 110 -276 110 -84 1 -106 -2 -140 -21 -57
-30 -168 -140 -195 -193 -56 -110 -63 -146 -65 -315 l-1 -160 -310 -155 c-170
-85 -361 -184 -424 -219 -63 -36 -146 -80 -184 -99 -70 -34 -146 -81 -200
-124 -16 -13 -49 -33 -72 -45 -39 -20 -368 -247 -406 -280 -20 -17 -25 -9 -53
77 -18 56 -126 218 -199 297 -119 131 -393 150 -612 43 -83 -41 -170 -134
-223 -241 -23 -45 -41 -87 -41 -95 0 -27 -21 -23 -116 23 -99 48 -99 48 -204
48 -103 0 -108 -1 -184 -39 -105 -52 -221 -161 -265 -250 -53 -108 -73 -203
-75 -353 0 -73 -3 -132 -6 -130 -50 30 -255 91 -271 81 -4 -2 -22 -26 -39 -53
l-31 -48 -61 24 c-48 20 -79 25 -143 25 -94 0 -122 -11 -131 -50 -14 -66 -12
-64 -54 -36 -49 33 -103 49 -217 64 l-92 13 -34 -26 c-19 -14 -40 -41 -47 -59
-8 -18 -14 -34 -15 -35 -1 -2 -36 15 -79 37 -90 46 -321 120 -376 120 -81 0
-130 -40 -130 -105 0 -14 -3 -25 -7 -25 -4 0 -56 20 -115 45 -164 70 -284 87
-344 50 -18 -11 -27 -9 -75 22 -169 109 -280 123 -361 46 l-27 -26 -88 67
c-48 36 -111 77 -139 91 -142 68 -265 51 -300 -40 l-15 -41 -96 49 c-153 79
-209 99 -283 100 -78 1 -105 -12 -121 -57 l-12 -33 -62 43 c-78 55 -221 124
-254 124 -15 -1 -43 -7 -64 -14 -36 -13 -45 -12 -170 29 -211 68 -268 69 -282
4 l-7 -31 -21 20 c-12 11 -34 26 -48 33 -14 8 -57 30 -95 50 -70 37 -177 69
-229 69 -18 0 -40 -10 -56 -26 l-27 -26 -34 26 c-19 14 -68 42 -108 61 -41 20
-91 45 -110 56 -48 26 -121 25 -171 -3 -39 -21 -46 -34 -51 -90 l-3 -28 -85
40 c-47 22 -91 40 -98 40 -7 0 -26 7 -43 15 -17 10 -67 18 -125 20 -95 5 -95
5 -125 -25 l-30 -30 -91 8 c-82 7 -98 6 -164 -16 -80 -27 -137 -72 -132 -106
3 -17 -3 -20 -35 -22 -60 -4 -177 -43 -231 -77 -61 -39 -80 -78 -61 -124 l14
-32 -82 -65 c-128 -100 -149 -126 -155 -188 -3 -42 -11 -60 -36 -88 -58 -63
-96 -117 -121 -175 -26 -58 -26 -65 8 -102 l20 -23 -26 -54 c-31 -64 -57 -156
-57 -204 0 -25 9 -43 33 -67 l33 -33 -18 -89 c-22 -108 -22 -145 -3 -210 10
-34 22 -53 39 -61 22 -10 24 -18 31 -107 9 -125 35 -216 74 -261 17 -19 31
-43 31 -53 0 -30 67 -153 111 -204 30 -34 48 -47 68 -47 28 0 59 -17 103 -58
30 -28 147 -72 187 -72 52 1 88 51 70 97 -39 102 -105 341 -130 468 -91 470
-48 766 135 932 116 105 325 166 495 144 87 -11 200 -45 319 -95 91 -39 338
-184 568 -333 247 -161 422 -254 533 -284 82 -22 83 -23 60 -38 -52 -33 -118
-110 -129 -152 -26 -96 44 -182 220 -274 133 -70 160 -99 160 -175 0 -66 -23
-123 -71 -181 -42 -50 -58 -95 -59 -160 0 -30 7 -43 35 -68 48 -42 109 -42
212 -1 41 17 78 30 82 30 4 0 3 -22 -2 -48 -20 -98 13 -162 84 -162 50 0 68 9
147 77 35 29 68 53 73 53 5 0 23 -9 38 -21 16 -12 49 -24 74 -26 122 -14 240
119 254 284 8 100 -9 174 -74 320 -3 7 1 15 8 17 8 3 53 19 102 37 l87 33 93
-47 c140 -70 250 -101 467 -135 160 -25 240 -31 446 -37 238 -6 264 -5 528 25
l277 31 57 -51 c85 -76 152 -103 327 -134 206 -36 297 -34 537 8 106 19 222
44 258 55 142 44 451 111 513 111 72 0 107 -18 107 -55 0 -42 -39 -130 -71
-161 -74 -71 -86 -130 -30 -153 61 -26 212 44 329 153 49 46 41 21 -22 -68
-24 -34 -15 -71 24 -91 35 -18 45 -15 143 52 43 29 82 53 87 53 5 0 14 -9 20
-19 16 -32 64 -36 118 -10 77 37 222 176 257 248 17 33 33 61 36 61 3 0 9 -23
12 -51 9 -70 29 -99 70 -99 39 0 73 32 108 100 l22 45 9 -30 c5 -16 6 -47 3
-67 -6 -45 13 -68 59 -68 46 0 110 66 154 159 32 67 36 84 40 181 5 130 -3
151 -91 237 -46 45 -79 67 -127 86 -85 33 -307 75 -445 85 l-110 8 75 13 c81
15 447 9 565 -9 33 -5 110 -16 170 -25 61 -9 283 -48 495 -87 451 -82 691
-107 1015 -108 306 -1 486 14 819 65 163 24 439 60 615 79 359 39 668 94 742
132 79 39 128 125 115 198 -4 21 -22 54 -41 75 -21 23 -38 55 -45 85 -6 27
-17 61 -25 76 -8 16 -19 59 -24 95 -11 76 -31 105 -72 105 -36 0 -93 -49 -115
-101 -20 -44 -34 -50 -35 -16 0 12 -8 45 -18 72 -22 64 -51 77 -107 49 -29
-14 -46 -33 -69 -76 -16 -32 -32 -58 -35 -58 -3 0 -17 22 -32 49 -15 27 -40
58 -56 70 l-29 20 -19 -20 c-11 -12 -35 -51 -54 -87 -19 -36 -40 -68 -47 -70
-7 -2 -19 21 -29 55 -25 81 -40 96 -88 90 -22 -3 -43 -13 -48 -22 -20 -34
-104 -139 -115 -142 -6 -2 -30 28 -53 66 -37 65 -44 71 -73 71 -45 0 -70 -20
-112 -90 -51 -84 -74 -78 -89 20 -19 126 -95 122 -172 -9 -47 -80 -49 -79 -58
14 -7 61 -22 85 -56 85 -30 0 -105 -56 -145 -108 -21 -29 -42 -52 -46 -52 -8
0 -19 78 -19 135 0 39 -3 43 -27 48 -39 8 -83 -16 -127 -69 -43 -51 -56 -47
-56 18 0 42 -16 89 -33 100 -21 13 -72 9 -96 -8 -12 -9 -39 -41 -58 -72 -35
-54 -36 -55 -45 -32 -5 14 -10 53 -11 87 -3 75 -23 103 -74 103 -47 0 -65 -12
-108 -70 l-38 -51 -36 73 c-22 44 -43 74 -54 76 -30 6 -65 -25 -113 -99 -25
-40 -49 -67 -55 -63 -6 3 -20 27 -31 53 -10 25 -27 54 -35 64 -37 40 -99 9
-155 -79 l-41 -66 -36 69 c-35 66 -37 68 -71 65 -42 -4 -71 -29 -116 -99 -19
-28 -38 -54 -43 -57 -12 -8 -26 12 -41 59 -31 99 -88 98 -161 -3 l-38 -54 -25
55 c-13 30 -34 61 -46 67 -19 10 -29 7 -74 -24 -29 -20 -63 -50 -75 -67 l-24
-32 -17 34 c-18 33 -18 34 5 55 22 20 26 35 37 131 3 22 4 21 57 -11 30 -19
60 -32 67 -29 24 9 54 87 54 142 0 29 3 51 8 49 112 -58 155 -68 187 -44 16
12 18 23 11 118 -6 104 -3 126 18 109 27 -22 180 -101 195 -101 9 0 26 7 37
15 18 12 22 29 28 114 l8 101 36 -30 c57 -45 127 -73 152 -60 31 17 53 69 58
142 3 38 7 68 9 68 2 0 32 -23 66 -51 52 -42 67 -49 92 -44 48 8 65 38 65 111
0 34 5 66 11 69 5 4 40 -16 77 -44 36 -28 76 -51 88 -51 31 0 64 45 64 89 0
61 8 63 86 25 40 -19 79 -32 88 -28 17 7 60 92 71 141 6 30 8 31 33 20 15 -6
42 -24 60 -39 35 -30 73 -44 97 -35 32 13 65 83 72 149 8 94 13 98 65 56 23
-20 53 -40 65 -47 33 -17 88 -13 114 7 22 19 22 21 11 103 -18 129 -21 125 53
79 103 -63 152 -66 175 -10 12 30 11 64 -6 192 l-7 48 54 -16 c30 -9 71 -26
91 -40 43 -28 57 -25 81 17 22 40 22 83 -3 161 -24 77 -27 116 -6 99 7 -6 54
-29 104 -50 98 -42 111 -41 138 10 12 24 13 37 5 61 -11 31 -15 108 -6 108 2
0 26 -13 52 -30 65 -41 117 -41 138 0 8 16 15 53 15 83 0 29 3 57 6 60 4 3 18
-3 32 -13 13 -11 29 -20 34 -20 6 0 21 -9 35 -20 26 -20 68 -26 90 -12 13 8
53 96 53 118 0 18 20 18 45 0 11 -7 38 -19 60 -25 35 -9 42 -8 63 12 23 20 24
27 19 97 -3 41 -13 104 -22 139 -15 55 -15 70 -4 104 26 79 -24 315 -97 459
-34 67 -135 167 -199 197 -69 33 -173 38 -237 12z"/>
</g>
</svg>
