<?xml version="1.0" standalone="no"?>
<!DOCTYPE svg PUBLIC "-//W3C//DTD SVG 20010904//EN"
 "http://www.w3.org/TR/2001/REC-SVG-20010904/DTD/svg10.dtd">
<svg version="1.0" xmlns="http://www.w3.org/2000/svg"
 width="1280.000000pt" height="640.000000pt" viewBox="0 0 1280.000000 640.000000"
 preserveAspectRatio="xMidYMid meet">
<metadata>
Created by potrace 1.15, written by Peter Selinger 2001-2017
</metadata>
<g transform="translate(0.000000,640.000000) scale(0.100000,-0.100000)"
fill="#000000" stroke="none">
<path d="M9750 6374 c-724 -22 -958 -44 -1313 -124 -823 -183 -2173 -653
-3952 -1375 -253 -103 -558 -227 -679 -276 -120 -49 -222 -86 -227 -83 -5 3
-32 78 -60 167 -129 411 -196 564 -315 723 -101 136 -206 198 -336 198 -68 0
-85 -4 -152 -37 -148 -74 -245 -227 -360 -569 -60 -178 -86 -238 -105 -238
-18 0 -66 59 -169 209 -134 195 -247 313 -347 362 -59 29 -80 34 -140 34 -171
0 -318 -127 -590 -510 -63 -88 -132 -178 -154 -199 -39 -38 -41 -39 -73 -25
-90 37 -283 227 -736 722 l-44 49 6 -379 c26 -1515 37 -1997 61 -2803 31 -993
62 -1602 101 -1935 13 -115 37 -242 48 -253 3 -2 49 3 103 12 275 43 895 97
1498 130 343 19 503 24 1125 36 278 6 957 19 1510 30 1052 21 1693 33 2620 50
543 10 904 21 1285 40 105 6 438 14 740 20 758 13 1045 28 1295 64 58 9 240
27 405 41 306 26 446 44 547 71 32 8 232 50 445 94 516 105 560 114 688 145
244 57 270 71 299 153 42 118 28 264 -30 319 -18 17 -124 75 -234 130 l-200
98 -48 123 -49 123 -58 -73 c-32 -40 -59 -74 -61 -76 -1 -2 -73 15 -160 36
l-158 40 -51 132 -52 132 -89 -112 c-88 -110 -89 -112 -124 -106 -19 3 -73 6
-120 6 l-85 0 -84 140 c-46 77 -86 140 -90 140 -3 0 -44 -70 -91 -155 -77
-139 -88 -155 -115 -160 -111 -18 -329 -46 -341 -43 -8 2 -56 73 -107 158 -51
85 -97 155 -101 155 -4 0 -54 -83 -111 -185 -117 -209 -98 -194 -253 -202
l-83 -5 -111 186 c-61 102 -116 192 -123 199 -10 11 -33 -22 -120 -180 l-107
-195 -162 4 c-88 3 -166 6 -172 8 -7 2 -62 88 -124 190 -62 103 -116 183 -120
178 -5 -4 -55 -91 -111 -193 -56 -102 -103 -186 -104 -188 -3 -3 -418 -43
-421 -40 -1 2 -51 85 -112 186 l-109 182 -103 -187 c-57 -104 -111 -200 -121
-214 -17 -24 -27 -26 -176 -42 -87 -10 -174 -20 -194 -22 l-36 -5 -89 185 -89
184 -130 -191 -130 -190 -213 6 c-118 3 -217 8 -221 10 -3 3 -42 84 -86 180
-44 97 -83 176 -86 176 -3 0 -59 -75 -124 -167 -65 -93 -120 -170 -122 -172
-3 -5 -387 17 -448 25 l-41 6 -28 141 c-16 78 -31 145 -35 149 -3 3 -73 -54
-156 -128 l-150 -135 -80 6 c-157 12 -319 35 -325 46 -4 6 -22 83 -40 172 -18
89 -36 167 -39 174 -4 7 -63 -40 -150 -118 -79 -71 -148 -129 -155 -129 -13 0
-61 31 -159 103 l-68 50 3 93 c2 52 2 94 0 94 -1 0 -34 -16 -73 -36 -39 -19
-77 -33 -85 -30 -8 3 -43 29 -80 58 l-65 53 3 87 c2 49 2 88 0 88 -1 0 -30
-14 -64 -31 -55 -28 -64 -30 -84 -18 -12 8 -86 72 -163 142 -148 134 -151 138
-132 205 11 36 9 37 -47 18 l-41 -15 -57 62 c-72 79 -141 176 -155 217 -9 25
-9 35 2 45 17 16 29 18 151 16 l97 -1 161 -212 c89 -117 164 -214 168 -215 4
-1 46 91 94 205 l86 207 66 3 65 3 156 -208 c86 -114 159 -209 163 -210 4 -2
47 93 96 210 49 116 92 215 95 218 3 4 45 10 92 13 l86 7 124 -165 c68 -91
126 -166 129 -166 3 0 40 82 82 183 l76 182 84 12 83 13 193 -196 c107 -107
195 -194 197 -192 2 2 32 106 67 233 l65 229 69 13 69 13 152 -152 151 -151
18 59 c9 32 34 120 54 194 30 108 41 136 56 138 10 2 85 19 166 38 81 20 154
34 162 32 9 -2 76 -54 151 -117 75 -62 138 -111 140 -109 3 3 16 70 30 149 33
187 33 189 48 189 6 0 98 28 204 61 l191 62 184 -117 c102 -64 188 -116 191
-116 4 0 7 42 7 93 0 52 3 141 6 199 l7 105 224 106 c123 59 228 107 233 107
5 0 88 -49 184 -110 97 -60 177 -110 179 -110 3 0 8 91 12 203 4 111 9 205 11
209 2 4 41 21 87 38 70 27 226 107 348 179 l35 21 120 -75 119 -74 7 52 c3 29
6 95 7 149 l1 96 199 121 c110 67 205 121 212 121 7 0 73 -38 147 -86 74 -47
137 -83 140 -80 3 4 8 85 12 182 4 96 11 179 16 184 19 17 213 124 346 191
l139 70 127 -81 127 -80 7 38 c4 20 7 87 7 148 l1 111 118 56 c65 32 122 57
125 57 4 0 81 -47 173 -105 92 -58 168 -105 169 -103 1 2 6 79 11 172 l9 169
100 34 c54 18 102 33 105 33 3 0 52 -29 110 -65 58 -36 108 -65 112 -65 5 0 8
46 8 103 l0 104 105 33 c112 35 117 35 342 14 l72 -7 35 35 c62 62 82 189 51
326 -27 114 -52 152 -126 190 -169 86 -580 146 -1249 183 -182 10 -1244 19
-1450 13z"/>
</g>
</svg>
